<svg width="25" height="27" viewBox="0 0 25 27" fill="none" xmlns="http://www.w3.org/2000/svg">
<g opacity="0.48" clip-path="url(#clip0_48_1244)">
<path d="M8.18685 4.97404L22.0058 13.4034C22.0058 13.4034 24.052 15.0153 22.1281 18.487C20.2041 21.9587 17.8733 21.1167 17.8733 21.1167L3.52141 12.8565C3.52141 12.8565 1.82064 11.2905 3.52623 8.07863C5.49928 4.3431 8.18685 4.97404 8.18685 4.97404Z" fill="#C5E9DA" stroke="#36B37E" stroke-width="0.121852" stroke-miterlimit="10"/>
<path d="M8.18663 4.97463C8.18663 4.97463 10.145 6.17558 8.05552 10.1286C6.092 13.831 3.52119 12.8571 3.52119 12.8571C3.52119 12.8571 1.86926 11.1527 3.52601 8.07922C5.18276 5.00576 7.17121 4.95105 8.18663 4.97463Z" fill="#36B37E"/>
<path d="M20.9089 12.7296C20.9089 12.7296 19.631 14.6749 16.2668 16.0189C12.6988 17.4477 10.6665 16.9697 10.6665 16.9697L13.5494 18.6343C13.5494 18.6343 15.0625 18.9537 18.7921 17.2128C21.837 15.7947 22.7065 14.3954 22.7065 14.3954L21.9891 13.3996L20.9089 12.7296Z" fill="#172B4D"/>
<path d="M16.0097 9.78535C16.0097 9.78535 14.7725 11.5271 11.1127 12.7142C7.45296 13.9014 4.94079 13.6886 4.94079 13.6886L7.82369 15.3532C7.82369 15.3532 10.1593 15.6496 13.4573 14.2865C16.5137 13.0152 18.2588 11.1597 18.2588 11.1597L16.4907 10.0764L16.0097 9.78535Z" fill="#36B37E"/>
<path d="M8.05572 10.1292C8.05572 10.1292 11.8909 10.4183 14.1449 8.60193L11.6723 7.10039C11.6723 7.10039 10.5446 7.52866 9.00185 7.28139C9.00185 7.28139 8.59544 9.06524 8.05572 10.1292Z" fill="#172B4D"/>
<path d="M6.59106 8.61335L6.1044 9.24427L6.26715 12.1336C6.26715 12.1336 7.38614 11.3621 8.05524 10.1292L7.46194 8.70289L6.59106 8.61335Z" fill="white" stroke="#36B37E" stroke-width="0.121852" stroke-miterlimit="10"/>
<path d="M8.78497 5.85701C8.78497 5.85701 8.61967 5.1548 8.181 4.96564L5.85966 8.32284C5.85966 8.32284 6.66739 8.60041 6.86834 8.71212C7.07518 8.83449 7.45463 9.04246 7.45463 9.04246L8.87813 8.11658C8.88402 8.12725 9.37181 6.99452 8.78497 5.85701Z" fill="white" stroke="#36B37E" stroke-width="0.121852" stroke-miterlimit="10"/>
<path d="M22.5141 17.6756C22.5141 17.6756 20.442 19.1409 17.9141 19.6051C15.565 20.0401 15.348 19.6727 15.348 19.6727L17.8728 21.1176C17.8728 21.1176 18.9514 21.4822 20.3025 20.652C21.6536 19.8218 22.5141 17.6756 22.5141 17.6756Z" fill="#36B37E"/>
<path d="M6.87374 8.72083C6.87374 8.72083 6.69272 7.63749 6.47578 7.27011C6.25883 6.90273 6.21056 6.79018 6.21056 6.79018L5.69723 7.70035L5.86506 8.33155L6.87374 8.72083Z" fill="white" stroke="#36B37E" stroke-width="0.121852" stroke-miterlimit="10"/>
<path d="M6.09371 9.24976L5.37804 9.08838L2.81225 11.1467C2.81225 11.1467 2.74658 11.4057 3.11507 12.2741L3.34268 12.6356L6.38138 9.74513C6.37072 9.75102 6.45688 9.32751 6.09371 9.24976Z" fill="white" stroke="#36B37E" stroke-width="0.121852" stroke-miterlimit="10"/>
<path d="M6.09381 9.25038C6.09381 9.25038 5.14321 10.9312 5.17997 10.897C5.21674 10.8627 6.64136 9.96409 6.64136 9.96409C6.64136 9.96409 6.58973 9.24084 6.09381 9.25038Z" fill="white" stroke="#36B37E" stroke-width="0.121852" stroke-miterlimit="10"/>
</g>
<defs>
<clipPath id="clip0_48_1244">
<rect width="20.4102" height="16.2672" fill="white" transform="translate(15.0143 0.325195) rotate(61.0741)"/>
</clipPath>
</defs>
</svg>
