<svg width="194" height="202" viewBox="0 0 194 202" fill="none" xmlns="http://www.w3.org/2000/svg">
<g clip-path="url(#clip0_34_2143)">
<path d="M174.707 104.102L133.867 168.873L53.9406 165.953L95.0873 101.135L174.707 104.102Z" fill="#C5E9DA" stroke="#36B37E" stroke-width="1.11251" stroke-miterlimit="10" stroke-linejoin="round"/>
<path d="M95.0878 101.134L53.9411 165.953L22.2133 95.3758L59.9492 32.5254L95.0878 101.134Z" fill="white" stroke="#36B37E" stroke-width="1.11251" stroke-miterlimit="10" stroke-linejoin="round"/>
<path d="M95.088 101.134L121.135 66.3636L59.9494 32.5252L95.088 101.134Z" fill="white" stroke="#36B37E" stroke-width="1.11251" stroke-miterlimit="10" stroke-linejoin="round"/>
<path d="M121.135 66.3638L174.707 104.102L95.0877 101.134L121.135 66.3638Z" fill="white" stroke="#36B37E" stroke-width="1.11251" stroke-miterlimit="10" stroke-linejoin="round"/>
<path d="M59.9494 32.5254L140.375 37.0677L121.135 66.3638L59.9494 32.5254Z" fill="#C5E9DA" stroke="#36B37E" stroke-width="1.11251" stroke-miterlimit="10" stroke-linejoin="round"/>
<path d="M174.707 104.102L140.375 37.0677L121.135 66.3638L174.707 104.102Z" fill="white" stroke="#36B37E" stroke-width="1.11251" stroke-miterlimit="10" stroke-linejoin="round"/>
<path d="M108.155 83.7271L100.253 94.1811L108.155 83.7271Z" fill="#644DF2"/>
<path d="M103.973 101.444L100.253 94.1809L95.0877 101.135L103.973 101.444Z" fill="#36B37E"/>
<path d="M103.973 101.444L63.8383 166.296L77.5624 166.779L117.478 101.929L103.973 101.444Z" fill="#36B37E"/>
<path d="M127.639 102.359L87.5043 167.211L101.228 167.694L141.144 102.844L127.639 102.359Z" fill="#36B37E"/>
<path d="M127.64 102.358L113.835 75.4048L108.155 83.7267L117.478 101.929L127.64 102.358Z" fill="#36B37E"/>
<path d="M141.144 102.844L123.216 67.8391L150.533 87.0986L158.959 103.551L141.144 102.844Z" fill="#36B37E"/>
<path d="M158.96 103.551L152.673 112.846L168.818 113.525L174.707 104.102L158.96 103.551Z" fill="#172B4D"/>
<path d="M135.515 111.912L129.801 121.246L147.397 121.955L153.331 112.619L135.515 111.912Z" fill="#172B4D"/>
<path d="M147.397 121.955L141.111 131.25L157.256 131.93L163.189 122.594L147.397 121.955Z" fill="#172B4D"/>
<path d="M122.738 63.8858L121.135 66.3638L132.147 36.5317L140.375 37.0677L122.738 63.8858Z" fill="#172B4D"/>
<path d="M44.0106 143.975L51.4536 131.547L44.0904 115.876L36.8651 128.082L44.0106 143.975Z" fill="#36B37E"/>
<path d="M45.6161 119.07L40.3124 107.205L47.5377 94.9988L53.0612 106.862L77.5183 66.8299C77.5183 66.8299 62.2796 37.076 59.949 32.5254C57.6184 27.9748 22.1683 95.2883 22.1683 95.2883L38.2563 131.014L45.6161 119.07Z" fill="#172B4D"/>
</g>
<defs>
<clipPath id="clip0_34_2143">
<rect width="136.667" height="156.036" fill="white" transform="translate(193.162 139.057) rotate(152.88)"/>
</clipPath>
</defs>
</svg>
