<svg width="68" height="61" viewBox="0 0 68 61" fill="none" xmlns="http://www.w3.org/2000/svg">
<g clip-path="url(#clip0_34_2165)">
<path d="M45.3897 2.19032L63.644 25.4442L52.2125 54.1291L33.981 30.7574L45.3897 2.19032Z" fill="#C5E9DA" stroke="#36B37E" stroke-width="1.11251" stroke-miterlimit="10" stroke-linejoin="round"/>
<path d="M33.9811 30.7567L52.2126 54.1284L22.4323 56.5089L4.47382 34.6328L33.9811 30.7567Z" fill="white" stroke="#36B37E" stroke-width="1.11251" stroke-miterlimit="10" stroke-linejoin="round"/>
<path d="M33.9808 30.7563L24.7165 16.7736L4.47361 34.6324L33.9808 30.7563Z" fill="white" stroke="#36B37E" stroke-width="1.11251" stroke-miterlimit="10" stroke-linejoin="round"/>
<path d="M24.7166 16.7738L45.3896 2.18945L33.9809 30.7565L24.7166 16.7738Z" fill="white" stroke="#36B37E" stroke-width="1.11251" stroke-miterlimit="10" stroke-linejoin="round"/>
<path d="M4.47381 34.6326L16.56 5.9766L24.7167 16.7739L4.47381 34.6326Z" fill="#C5E9DA" stroke="#36B37E" stroke-width="1.11251" stroke-miterlimit="10" stroke-linejoin="round"/>
<path d="M45.3896 2.18945L16.5599 5.97659L24.7166 16.7738L45.3896 2.18945Z" fill="white" stroke="#36B37E" stroke-width="1.11251" stroke-miterlimit="10" stroke-linejoin="round"/>
<path d="M29.3464 23.7467L32.1226 27.9764L29.3464 23.7467Z" fill="#644DF2"/>
<path d="M35.2466 27.5654L32.1227 27.9758L33.9811 30.7563L35.2466 27.5654Z" fill="#36B37E"/>
<path d="M35.2463 27.5656L53.6215 50.5739L55.5776 45.646L37.1747 22.718L35.2463 27.5656Z" fill="#36B37E"/>
<path d="M38.6491 19.0783L57.0243 42.0866L58.9805 37.1587L40.5775 14.2307L38.6491 19.0783Z" fill="#36B37E"/>
<path d="M38.6494 19.0781L27.0573 20.6009L29.3464 23.7459L37.1749 22.7176L38.6494 19.0781Z" fill="#36B37E"/>
<path d="M40.5775 14.2304L25.5228 16.208L36.0703 8.77323L43.146 7.84375L40.5775 14.2304Z" fill="#36B37E"/>
<path d="M43.1463 7.84388L45.7107 11.3356L48.0523 5.55311L45.3898 2.1891L43.1463 7.84388Z" fill="#172B4D"/>
<path d="M43.1451 17.4546L45.7977 20.7433L48.3385 14.4369L45.7136 11.0679L43.1451 17.4546Z" fill="#172B4D"/>
<path d="M48.3387 14.4367L50.9031 17.9284L53.2447 12.1459L50.6198 8.77693L48.3387 14.4367Z" fill="#172B4D"/>
<path d="M24.0236 15.8695L24.7167 16.7739L15.2976 8.89904L16.56 5.9766L24.0236 15.8695Z" fill="#172B4D"/>
<path d="M42.9323 54.8875L39.3787 50.5685L32.7249 51.2128L36.2261 55.4238L42.9323 54.8875Z" fill="#36B37E"/>
<path d="M34.0848 51.0727L29.0821 51.4618L25.5809 47.2508L30.6113 46.7815L19.2275 32.6944C19.2275 32.6944 6.43104 34.3753 4.47393 34.6324C2.51681 34.8895 22.3948 56.5135 22.3948 56.5135L37.4731 55.2985L34.0848 51.0727Z" fill="#172B4D"/>
</g>
<defs>
<clipPath id="clip0_34_2165">
<rect width="52.7646" height="60.2428" fill="white" transform="translate(60.4951 0.0136719) rotate(82.5164)"/>
</clipPath>
</defs>
</svg>
